/vscmnt/brussel_pixiu_data/_data_brussel/112/vsc11236/PredSimResults/SUBJ10mtu3D/worker8.mot
version=1
nRows=5
nColumns=50
inDegrees=yes
endheader
                time	         pelvis_tilt	         pelvis_list	     pelvis_rotation	           pelvis_tx	           pelvis_ty	           pelvis_tz	       hip_flexion_r	     hip_adduction_r	      hip_rotation_r	        knee_angle_r	       ankle_angle_r	         mtp_angle_r	       hip_flexion_l	     hip_adduction_l	      hip_rotation_l	        knee_angle_l	       ankle_angle_l	         mtp_angle_l	    lumbar_extension	      lumbar_bending	     lumbar_rotation	 ercspn_r/activation	 intobl_r/activation	 extobl_r/activation	    abd_r/activation	    add_r/activation	hamstrings_r/activation	bifemsh_r/activation	glut_max_r/activation	iliopsoas_r/activation	rect_fem_r/activation	  vasti_r/activation	gastroc_r/activation	 soleus_r/activation	tib_ant_r/activation	 ercspn_l/activation	 intobl_l/activation	 extobl_l/activation	    abd_l/activation	    add_l/activation	hamstrings_l/activation	bifemsh_l/activation	glut_max_l/activation	iliopsoas_l/activation	rect_fem_l/activation	  vasti_l/activation	gastroc_l/activation	 soleus_l/activation	tib_ant_l/activation	
          0.00000000	         -4.58489697	         -1.13413559	          7.86957036	          0.00000000	          0.82184901	         -0.01277170	         31.21023484	         -1.76038803	         -6.51436128	         -6.09388528	          2.94559906	          0.26691071	        -16.38505721	         -1.14798621	         -0.08810707	         -4.97064521	          7.71554802	         26.71358357	         -6.46233469	         -0.65335831	         -6.59735848	          0.11980103	          0.18586777	          0.01000013	          0.01000009	          0.11617101	          0.12151849	          0.24419449	          0.02554974	          0.11754217	          0.01000032	          0.01000009	          0.01006773	          0.01000007	          0.28334949	          0.06184766	          0.01000001	          0.01000006	          0.05454854	          0.01000011	          0.01392837	          0.22479345	          0.01000010	          0.31959180	          0.01000045	          0.01000004	          0.30590654	          0.24832309	          0.02421461	
          0.01120398	         -4.63087625	         -1.09506630	          7.98327758	          0.01564011	          0.82040744	         -0.01264682	         31.19804676	         -1.67139591	         -6.34433590	         -7.76886822	          2.67078487	          0.26501706	        -16.53859358	         -1.25966036	         -0.37718594	         -6.53181805	          6.99529375	         28.36054055	         -6.27955632	         -0.22901011	         -6.87898369	          0.10095039	          0.15662143	          0.01000011	          0.01000000	          0.16164454	          0.10529876	          0.20982794	          0.06086733	          0.09904687	          0.01000011	          0.01000001	          0.01671339	          0.01186746	          0.30786025	          0.09905653	          0.01000002	          0.01000006	          0.04596530	          0.01000072	          0.01187597	          0.18942213	          0.01092923	          0.26930393	          0.01000021	          0.01000005	          0.27273603	          0.23897609	          0.02040443	
          0.02240795	         -4.66574252	         -1.06653130	          8.05404518	          0.03160532	          0.81915475	         -0.01244612	         31.01372468	         -1.59366201	         -6.11053087	         -9.33110535	          2.25727309	          0.25521461	        -16.58760764	         -1.38817715	         -0.69865167	         -8.32004083	          6.14913797	         29.94962210	         -6.07411241	          0.21646610	         -7.13410374	          0.08966891	          0.13197700	          0.01000007	          0.03281255	          0.13620979	          0.09180982	          0.17681155	          0.09601038	          0.08346180	          0.01000005	          0.01000001	          0.01408354	          0.01000012	          0.39877695	          0.11116449	          0.01000001	          0.01000006	          0.03873264	          0.01000022	          0.01009103	          0.15961649	          0.01000005	          0.22692887	          0.01000027	          0.01000005	          0.22982093	          0.22457052	          0.01719379	
          0.03361193	         -4.69105810	         -1.03667262	          8.07655808	          0.04768230	          0.81822059	         -0.01212110	         30.74364018	         -1.50946701	         -5.94740340	        -10.72646978	          1.71625076	          0.24223855	        -16.45605800	         -1.52226921	         -1.05429254	        -10.43763489	          5.17983344	         31.40057309	         -5.87228520	          0.66013500	         -7.35686434	          0.10643729	          0.11121037	          0.01000007	          0.08522127	          0.17625212	          0.07736386	          0.14899024	          0.11362010	          0.07032906	          0.01000006	          0.01000002	          0.01186750	          0.01000001	          0.45658202	          0.13891626	          0.01000001	          0.01000005	          0.03263805	          0.01000024	          0.01108159	          0.13450079	          0.01000018	          0.19122154	          0.01000040	          0.01000013	          0.19365851	          0.20790029	          0.01448834	
          0.04481590	         -4.70619702	         -1.00412977	          8.05615639	          0.06371780	          0.81771379	         -0.01168390	         30.47331047	         -1.41966910	         -5.84496866	        -12.14501633	          1.26253976	          0.22666767	        -16.08738972	         -1.66343108	         -1.44522337	        -12.95693496	          4.09454442	         32.58699989	         -5.68720822	          1.09923540	         -7.54602518	          0.11326500	          0.09371138	          0.01000008	          0.12252078	          0.22730824	          0.06738064	          0.12554660	          0.12807358	          0.05926275	          0.01000009	          0.01000016	          0.01000019	          0.01000005	          0.47644728	          0.17095594	          0.01000002	          0.01000004	          0.02750244	          0.02502674	          0.02031421	          0.11333705	          0.01000022	          0.16113277	          0.01000024	          0.01000022	          0.16318627	          0.18751430	          0.01220860	
